<svg xmlns="http://www.w3.org/2000/svg" width="169.063" height="169.063"><path d="M111.416 24.531H57.647c-18.26 0-33.116 14.857-33.116 33.116v53.769c0 18.261 14.856 33.115 33.115 33.115h53.77c18.26 0 33.115-14.855 33.115-33.115V57.647c.002-18.259-14.855-33.116-33.115-33.116zm22.469 86.884c0 12.39-10.079 22.47-22.47 22.47H57.647c-12.39 0-22.469-10.08-22.469-22.47V57.647c0-12.389 10.079-22.469 22.469-22.469h53.769c12.389 0 22.469 10.08 22.469 22.468v53.769zM84.531 53.612c-17.05 0-30.921 13.871-30.921 30.921 0 17.05 13.871 30.92 30.921 30.92 17.051 0 30.922-13.87 30.922-30.92 0-17.05-13.871-30.921-30.922-30.921zm0 51.193c-11.179 0-20.274-9.095-20.274-20.274s9.095-20.273 20.274-20.273c11.181 0 20.274 9.095 20.274 20.273 0 11.18-9.093 20.274-20.274 20.274zm32.218-60.221c-2.051 0-4.065.83-5.516 2.286a7.844 7.844 0 0 0-2.292 5.522c0 2.052.838 4.067 2.292 5.522a7.87 7.87 0 0 0 5.516 2.286 7.885 7.885 0 0 0 5.522-2.286 7.867 7.867 0 0 0 2.286-5.522 7.842 7.842 0 0 0-2.286-5.522 7.836 7.836 0 0 0-5.522-2.286z" fill="#2a1b17"/></svg>