<svg xmlns="http://www.w3.org/2000/svg" width="800.36" height="800"><path d="M279.598 664.076c245.282 0 379.439-203.213 379.439-379.438 0-5.772 0-11.518-.39-17.237a271.203 271.203 0 0 0 66.533-69.029 266.452 266.452 0 0 1-76.597 20.982 133.838 133.838 0 0 0 58.629-73.761 267.242 267.242 0 0 1-84.679 32.369c-50.51-53.707-134.982-56.297-188.689-5.789-34.631 32.569-49.33 81.102-38.583 127.415-107.223-5.374-207.13-56.021-274.842-139.332-35.394 60.935-17.315 138.89 41.288 178.019a132.392 132.392 0 0 1-60.527-16.691v1.69c.018 63.482 44.763 118.16 106.989 130.726a133.147 133.147 0 0 1-60.215 2.287c17.472 54.322 67.538 91.536 124.59 92.61a267.607 267.607 0 0 1-165.618 57.2 269.99 269.99 0 0 1-31.745-1.924 377.54 377.54 0 0 0 204.409 59.799"/></svg>